<svg width="128" height="128" viewBox="0 0 128 128" fill="none" xmlns="http://www.w3.org/2000/svg">
  <defs>
    <linearGradient id="gradient" x1="0%" y1="0%" x2="100%" y2="100%">
      <stop offset="0%" style="stop-color:#667eea;stop-opacity:1" />
      <stop offset="100%" style="stop-color:#764ba2;stop-opacity:1" />
    </linearGradient>
  </defs>
  
  <!-- 背景圆形 -->
  <circle cx="64" cy="64" r="60" fill="url(#gradient)" stroke="#ffffff" stroke-width="4"/>
  
  <!-- 购物车图标 -->
  <path d="M25 25h10l8 32h40l6-24h-34" stroke="#ffffff" stroke-width="3" fill="none" stroke-linecap="round" stroke-linejoin="round"/>
  <circle cx="49" cy="85" r="4" fill="#ffffff"/>
  <circle cx="83" cy="85" r="4" fill="#ffffff"/>
  <path d="M35 57h48" stroke="#ffffff" stroke-width="3" stroke-linecap="round"/>
  
  <!-- AI 大脑图标 -->
  <circle cx="90" cy="38" r="12" fill="#ffffff" opacity="0.9"/>
  <path d="M84 35c0-3 2-5 5-5s5 2 5 5" stroke="url(#gradient)" stroke-width="2" fill="none"/>
  <path d="M86 38c0-2 1.5-3 3-3s3 1 3 3" stroke="url(#gradient)" stroke-width="2" fill="none"/>
  <circle cx="88" cy="40" r="1" fill="url(#gradient)"/>
  <circle cx="92" cy="40" r="1" fill="url(#gradient)"/>
  
  <!-- 连接线 -->
  <path d="M78 45L70 52" stroke="#ffffff" stroke-width="2" stroke-linecap="round" opacity="0.7"/>
  <path d="M82 50L75 57" stroke="#ffffff" stroke-width="2" stroke-linecap="round" opacity="0.7"/>
</svg>